<?xml version="1.0" encoding="UTF-8" standalone="no"?>
<svg
   xmlns:dc="http://purl.org/dc/elements/1.1/"
   xmlns:cc="http://creativecommons.org/ns#"
   xmlns:rdf="http://www.w3.org/1999/02/22-rdf-syntax-ns#"
   xmlns:svg="http://www.w3.org/2000/svg"
   xmlns="http://www.w3.org/2000/svg"
   xmlns:xlink="http://www.w3.org/1999/xlink"
   xmlns:sodipodi="http://sodipodi.sourceforge.net/DTD/sodipodi-0.dtd"
   xmlns:inkscape="http://www.inkscape.org/namespaces/inkscape"
   width="32"
   height="32"
   viewBox="0 0 32 32"
   version="1.1"
   id="SVGRoot"
   sodipodi:docname="phone-input.svg"
   inkscape:version="0.92.2 (5c3e80d, 2017-08-06)">
  <sodipodi:namedview
     pagecolor="#ffffff"
     bordercolor="#666666"
     borderopacity="1"
     objecttolerance="10"
     gridtolerance="10"
     guidetolerance="10"
     inkscape:pageopacity="0"
     inkscape:pageshadow="2"
     inkscape:window-width="640"
     inkscape:window-height="480"
     id="namedview110"
     showgrid="false"
     inkscape:zoom="7.375"
     inkscape:cx="16"
     inkscape:cy="16"
     inkscape:window-x="113"
     inkscape:window-y="448"
     inkscape:window-maximized="0"
     inkscape:current-layer="SVGRoot" />
  <defs
     id="defs4265">
    <linearGradient
       id="linearGradient5067">
      <stop
         style="stop-color:#000000;stop-opacity:0.23921569"
         offset="0"
         id="stop5063" />
      <stop
         style="stop-color:#000000;stop-opacity:0.318"
         offset="1"
         id="stop5065" />
    </linearGradient>
    <linearGradient
       gradientTransform="matrix(0.68000006,0,0,0.67441862,-0.31999967,1.5116278)"
       gradientUnits="userSpaceOnUse"
       xlink:href="#linearGradient3260"
       id="linearGradient3043"
       y2="39"
       x2="24"
       y1="37"
       x1="24" />
    <linearGradient
       id="linearGradient3260">
      <stop
         offset="0"
         style="stop-color:#3c3c3c;stop-opacity:1"
         id="stop3262" />
      <stop
         offset="1"
         style="stop-color:#505050;stop-opacity:1"
         id="stop3264" />
    </linearGradient>
    <linearGradient
       gradientTransform="matrix(0.47379065,0,0,0.62113994,4.594044,-0.87183318)"
       gradientUnits="userSpaceOnUse"
       xlink:href="#linearGradient3600"
       id="linearGradient3054"
       y2="48.136791"
       x2="25.132275"
       y1="2.9111307"
       x1="25.132275" />
    <linearGradient
       id="linearGradient3600">
      <stop
         offset="0"
         style="stop-color:#f4f4f4;stop-opacity:1"
         id="stop3602" />
      <stop
         offset="1"
         style="stop-color:#dbdbdb;stop-opacity:1"
         id="stop3604" />
    </linearGradient>
    <linearGradient
       xlink:href="#outerBackgroundGradient-5-0"
       id="linearGradient4020"
       gradientUnits="userSpaceOnUse"
       gradientTransform="matrix(0.35000008,0,0,0.86956523,8.6499994,11.956521)"
       x1="15"
       y1="24.618645"
       x2="15"
       y2="2" />
    <linearGradient
       id="outerBackgroundGradient-5-0">
      <stop
         id="stop3864-8-6-4"
         offset="0"
         style="stop-color:#261e2b;stop-opacity:1;" />
      <stop
         id="stop3866-9-1-86"
         offset="1"
         style="stop-color:#352f39;stop-opacity:1;" />
    </linearGradient>
    <linearGradient
       gradientTransform="matrix(0.40000005,0,0,1.5030072,7.5999988,13.024057)"
       gradientUnits="userSpaceOnUse"
       y2="12"
       x2="20"
       y1="-3"
       x1="10"
       id="linearGradient3887"
       xlink:href="#linearGradient3208" />
    <linearGradient
       id="linearGradient3208">
      <stop
         offset="0"
         style="stop-color:#ffffff;stop-opacity:1"
         id="stop3210" />
      <stop
         offset="1"
         style="stop-color:#ffffff;stop-opacity:0"
         id="stop3212" />
    </linearGradient>
    <linearGradient
       y2="41.814808"
       x2="23.99999"
       y1="6.1851745"
       x1="23.99999"
       gradientTransform="matrix(0.40540547,0,0,0.72972965,6.2702674,-2.5135052)"
       gradientUnits="userSpaceOnUse"
       id="linearGradient3916"
       xlink:href="#linearGradient4630" />
    <linearGradient
       id="linearGradient4630">
      <stop
         offset="0"
         style="stop-color:#ffffff;stop-opacity:1"
         id="stop4622" />
      <stop
         offset="0.02195775"
         style="stop-color:#ffffff;stop-opacity:0.23529412"
         id="stop4624" />
      <stop
         offset="0.98004687"
         style="stop-color:#ffffff;stop-opacity:0.15686275"
         id="stop4626" />
      <stop
         offset="1"
         style="stop-color:#ffffff;stop-opacity:0.39215687"
         id="stop4628" />
    </linearGradient>
    <linearGradient
       xlink:href="#linearGradient5067"
       id="linearGradient5069"
       x1="27.074766"
       y1="1.0934579"
       x2="27.074766"
       y2="44.831776"
       gradientUnits="userSpaceOnUse"
       gradientTransform="matrix(0.68000002,0,0,0.6744186,-0.3199996,-0.51162796)" />
    <linearGradient
       id="linearGradient3688-166-749-6">
      <stop
         id="stop2883-8"
         style="stop-color:#181818;stop-opacity:1"
         offset="0" />
      <stop
         id="stop2885-3"
         style="stop-color:#181818;stop-opacity:0"
         offset="1" />
    </linearGradient>
    <linearGradient
       id="linearGradient3702-501-757-3">
      <stop
         id="stop2895-3"
         style="stop-color:#181818;stop-opacity:0"
         offset="0" />
      <stop
         id="stop2897-28"
         style="stop-color:#181818;stop-opacity:1"
         offset="0.5" />
      <stop
         id="stop2899-8"
         style="stop-color:#181818;stop-opacity:0"
         offset="1" />
    </linearGradient>
    <linearGradient
       x1="25.058096"
       y1="47.027729"
       x2="25.058096"
       y2="39.999443"
       id="linearGradient2980-3"
       xlink:href="#linearGradient3702-501-757-3"
       gradientUnits="userSpaceOnUse"
       gradientTransform="matrix(0.42857142,0,0,0.42857134,5.7142856,10.857146)" />
    <radialGradient
       cx="4.9929786"
       cy="43.5"
       r="2.5"
       fx="4.9929786"
       fy="43.5"
       id="radialGradient2978-3"
       xlink:href="#linearGradient3688-166-749-6"
       gradientUnits="userSpaceOnUse"
       gradientTransform="matrix(1.2022705,0,0,0.59999988,-16.007123,-55.599994)" />
    <radialGradient
       cx="4.9929786"
       cy="43.5"
       r="2.5"
       fx="4.9929786"
       fy="43.5"
       id="radialGradient2976-2"
       xlink:href="#linearGradient3688-166-749-6"
       gradientUnits="userSpaceOnUse"
       gradientTransform="matrix(1.2022705,0,0,0.59999988,15.992879,3.4000048)" />
    <radialGradient
       r="13.08399"
       fy="40.578671"
       fx="18.753521"
       cy="40.578671"
       cx="18.753521"
       gradientTransform="matrix(0.70282884,0,0,0.27306454,79.157452,196.26613)"
       gradientUnits="userSpaceOnUse"
       id="radialGradient9452"
       xlink:href="#linearGradient3711-6" />
    <linearGradient
       id="linearGradient3711-6">
      <stop
         style="stop-color:#ffffff;stop-opacity:1"
         offset="0"
         id="stop3713-6" />
      <stop
         style="stop-color:#d2d2d2;stop-opacity:1"
         offset="1"
         id="stop3715-7" />
    </linearGradient>
    <linearGradient
       y2="13.351768"
       x2="30.230837"
       y1="13.351768"
       x1="18.737373"
       gradientTransform="matrix(0.71428546,0,0,0.8333331,78.00001,177.24999)"
       gradientUnits="userSpaceOnUse"
       id="linearGradient9408-0"
       xlink:href="#linearGradient2904" />
    <linearGradient
       id="linearGradient2904">
      <stop
         style="stop-color:#b9b9b9;stop-opacity:1"
         offset="0"
         id="stop2906" />
      <stop
         style="stop-color:white;stop-opacity:1;"
         offset="0.21551724"
         id="stop2910" />
      <stop
         style="stop-color:#c3c3c3;stop-opacity:1"
         offset="0.70243758"
         id="stop2912" />
      <stop
         style="stop-color:#878787;stop-opacity:1"
         offset="1"
         id="stop2908" />
    </linearGradient>
    <radialGradient
       r="6.46875"
       fy="9.9127865"
       fx="23.897814"
       cy="9.9127865"
       cx="23.897814"
       gradientTransform="matrix(1.0996681,0,0,0.66890226,69.568156,175.13018)"
       gradientUnits="userSpaceOnUse"
       id="radialGradient9430"
       xlink:href="#linearGradient3208" />
    <linearGradient
       y2="20.136354"
       x2="24.458324"
       y1="2.8636429"
       x1="24.458324"
       gradientTransform="matrix(0.72727299,0,0,0.90000059,78.04545,178.14998)"
       gradientUnits="userSpaceOnUse"
       id="linearGradient9412-9"
       xlink:href="#linearGradient4170" />
    <linearGradient
       id="linearGradient4170">
      <stop
         id="stop4172"
         style="stop-color:#ffffff;stop-opacity:1"
         offset="0" />
      <stop
         id="stop4174"
         style="stop-color:#ffffff;stop-opacity:0.23529412"
         offset="0.02783963" />
      <stop
         id="stop4176"
         style="stop-color:#ffffff;stop-opacity:0.15686275"
         offset="0.98396504" />
      <stop
         id="stop4178"
         style="stop-color:#ffffff;stop-opacity:0.39215687"
         offset="1" />
    </linearGradient>
    <linearGradient
       y2="10.75"
       x2="24.508121"
       y1="6.3608937"
       x1="21.961548"
       gradientTransform="matrix(0.59813084,0,0,0.64695805,79.78797,177.4202)"
       gradientUnits="userSpaceOnUse"
       id="linearGradient9434-7"
       xlink:href="#linearGradient3208" />
    <linearGradient
       y2="13.982918"
       x2="28.028574"
       y1="14.011304"
       x1="16.977392"
       gradientTransform="matrix(0.99514874,0,0,0.79639888,73.1074,178.36402)"
       gradientUnits="userSpaceOnUse"
       id="linearGradient9423"
       xlink:href="#linearGradient11193" />
    <linearGradient
       id="linearGradient11193">
      <stop
         id="stop11195"
         offset="0"
         style="stop-color:#ffffff;stop-opacity:1" />
      <stop
         style="stop-color:#e5e5e5;stop-opacity:1;"
         offset="0.23791341"
         id="stop9375" />
      <stop
         style="stop-color:#e1e1e1;stop-opacity:1"
         offset="0.5490092"
         id="stop11205" />
      <stop
         style="stop-color:#ababab;stop-opacity:1"
         offset="0.69210809"
         id="stop11201" />
      <stop
         id="stop11203"
         offset="0.80617243"
         style="stop-color:#959595;stop-opacity:1" />
      <stop
         id="stop11197"
         offset="1"
         style="stop-color:#d3d3d3;stop-opacity:1" />
    </linearGradient>
    <linearGradient
       y2="33.250046"
       x2="23.71969"
       y1="14.750049"
       x1="23.71969"
       gradientTransform="matrix(0.35675676,0,0,0.02702703,89.53784,189.35135)"
       gradientUnits="userSpaceOnUse"
       id="linearGradient9425"
       xlink:href="#linearGradient4413" />
    <linearGradient
       id="linearGradient4413">
      <stop
         offset="0"
         style="stop-color:#ffffff;stop-opacity:1"
         id="stop4415" />
      <stop
         offset="0.125"
         style="stop-color:#ffffff;stop-opacity:0.23529412"
         id="stop4417" />
      <stop
         offset="1"
         style="stop-color:#ffffff;stop-opacity:0.15686275"
         id="stop4419" />
      <stop
         offset="1"
         style="stop-color:#ffffff;stop-opacity:0.39215687"
         id="stop4421" />
    </linearGradient>
    <linearGradient
       y2="32.429119"
       x2="26.24283"
       y1="41.836731"
       x1="23.8125"
       gradientUnits="userSpaceOnUse"
       id="linearGradient9503-8"
       xlink:href="#linearGradient3208" />
  </defs>
  <metadata
     id="metadata4268">
    <rdf:RDF>
      <cc:Work
         rdf:about="">
        <dc:format>image/svg+xml</dc:format>
        <dc:type
           rdf:resource="http://purl.org/dc/dcmitype/StillImage" />
        <dc:title />
      </cc:Work>
    </rdf:RDF>
  </metadata>
  <rect
     style="opacity:0.3;fill:url(#radialGradient2976-2);fill-opacity:1;stroke:none"
     id="rect2801-0-9"
     y="28"
     x="22"
     height="2.9999993"
     width="3" />
  <rect
     style="opacity:0.3;fill:url(#radialGradient2978-3);fill-opacity:1;stroke:none"
     id="rect3696-2-1"
     transform="scale(-1,-1)"
     y="-30.999998"
     x="-10"
     height="2.9999993"
     width="3" />
  <rect
     style="opacity:0.3;fill:url(#linearGradient2980-3);fill-opacity:1;stroke:none"
     id="rect3700-1-2"
     y="28"
     x="10"
     height="2.9999995"
     width="12" />
  <rect
     style="display:inline;overflow:visible;visibility:visible;fill:url(#linearGradient3043);fill-opacity:1;fill-rule:nonzero;stroke:none;stroke-width:0.99992174;marker:none;enable-background:accumulate"
     id="rect3258"
     y="26.465117"
     x="15.320002"
     height="1.3488373"
     width="1.3600003" />
  <rect
     style="opacity:1;fill:url(#linearGradient3054);fill-opacity:1;stroke:none;stroke-width:0.99999994;stroke-linecap:butt;stroke-linejoin:miter;stroke-miterlimit:4;stroke-dasharray:none;stroke-dashoffset:0;stroke-opacity:1"
     id="rect2722-7-3"
     y="1"
     x="8"
     ry="1.5"
     rx="1.5"
     height="28"
     width="16" />
  <path
     id="rect3233"
     d="M 12.499999,3 A 0.50000014,0.50000001 0 0 0 12,3.5 0.50000014,0.50000001 0 0 0 12.499999,4 a 0.50000014,0.50000001 0 0 0 0.5,-0.5 0.50000014,0.50000001 0 0 0 -0.5,-0.5 z m 1.5,0 0,1 L 20,4 20,3 Z"
     style="display:inline;overflow:visible;visibility:visible;fill:#333333;fill-opacity:1;fill-rule:nonzero;stroke:none;stroke-width:0.99992174;marker:none;enable-background:accumulate" />
  <path
     id="rect2722-0"
     d="M 9,5 23,5 23,25 9,25 Z"
     style="display:inline;fill:url(#linearGradient4020);fill-opacity:1;stroke:none;stroke-width:0.99999994" />
  <path
     id="path3942"
     d="m 9,5 0,20 14,0 0,-20 z m 1,1 12,0 0,18 -12,0 z"
     style="display:inline;opacity:0.2;fill:#000000;fill-opacity:1;stroke:none" />
  <path
     id="rect3872"
     d="M 9,1 C 8.4460001,1 8,1.4414442 8,1.9897852 L 8,27.724201 C 8,27.820828 8.0184265,27.911846 8.0442725,28 L 24,8.3267307 24,1.9897852 C 24,1.4414442 23.554,1 23,1 Z"
     style="display:inline;opacity:0.2;fill:url(#linearGradient3887);fill-opacity:1;stroke:none;stroke-width:0.99999988" />
  <rect
     style="opacity:1;fill:none;stroke:url(#linearGradient3916);stroke-width:0.99999988;stroke-linecap:round;stroke-linejoin:round;stroke-miterlimit:4;stroke-dasharray:none;stroke-dashoffset:0;stroke-opacity:1"
     id="rect6741"
     y="1.4999999"
     x="8.5"
     ry="0.99999994"
     rx="0.99999988"
     height="27"
     width="15" />
  <rect
     style="opacity:1;fill:none;fill-opacity:1;stroke:url(#linearGradient5069);stroke-width:0.99999988;stroke-linecap:butt;stroke-linejoin:miter;stroke-miterlimit:4;stroke-dasharray:none;stroke-dashoffset:0;stroke-opacity:1"
     id="rect2722-7-3-2"
     y="0.49999991"
     x="7.5"
     ry="1.9999999"
     rx="1.9999998"
     height="29"
     width="17" />
  <path
     id="path3942-6"
     d="m 9,25 0,1 14,0 0,-1 z"
     style="display:inline;opacity:0.5;fill:#ffffff;fill-opacity:1;stroke:none" />
  <ellipse
     cy="27.139536"
     cx="16"
     id="path4649"
     style="color:#000000;clip-rule:nonzero;display:inline;overflow:visible;visibility:visible;opacity:0.5;isolation:auto;mix-blend-mode:normal;color-interpolation:sRGB;color-interpolation-filters:linearRGB;solid-color:#000000;solid-opacity:1;fill:none;fill-opacity:1;fill-rule:nonzero;stroke:#9b946d;stroke-width:0.99999994;stroke-linecap:butt;stroke-linejoin:miter;stroke-miterlimit:4;stroke-dasharray:none;stroke-dashoffset:0;stroke-opacity:1;marker:none;color-rendering:auto;image-rendering:auto;shape-rendering:auto;text-rendering:auto;enable-background:accumulate"
     rx="1.02"
     ry="1.0116279" />
  <path
     id="rect3233-2"
     d="m 12.499999,3.2093024 a 0.50000013,0.5 0 0 0 -0.499999,0.5 0.50000013,0.5 0 0 0 0.499999,0.5 0.50000013,0.5 0 0 0 0.5,-0.5 0.50000013,0.5 0 0 0 -0.5,-0.5 z m 1.5,0 0,1 6.000001,0 0,-1 z"
     style="display:inline;overflow:visible;visibility:visible;opacity:0.7;fill:#ffffff;fill-opacity:1;fill-rule:nonzero;stroke:none;stroke-width:1;stroke-linecap:butt;stroke-linejoin:miter;stroke-miterlimit:4;stroke-dasharray:none;stroke-dashoffset:0;stroke-opacity:1;marker:none;enable-background:accumulate" />
  <g
     id="g5939"
     style="display:inline;enable-background:new"
     transform="matrix(0.56093617,0,0,0.56093617,-30.015731,-85.927751)">
    <ellipse
       ry="3"
       rx="8"
       cy="206.5"
       cx="95.500023"
       id="ellipse9450"
       style="display:inline;fill:url(#radialGradient9452);fill-opacity:1;stroke:#000000;stroke-width:0.99999994;stroke-linecap:round;stroke-linejoin:round;stroke-miterlimit:4;stroke-dasharray:none;stroke-dashoffset:0;stroke-opacity:0.4" />
    <path
       inkscape:connector-curvature="0"
       style="color:#000000;font-style:normal;font-variant:normal;font-weight:normal;font-stretch:normal;font-size:medium;line-height:normal;font-family:sans-serif;font-variant-ligatures:normal;font-variant-position:normal;font-variant-caps:normal;font-variant-numeric:normal;font-variant-alternates:normal;font-feature-settings:normal;text-indent:0;text-align:start;text-decoration:none;text-decoration-line:none;text-decoration-style:solid;text-decoration-color:#000000;letter-spacing:normal;word-spacing:normal;text-transform:none;writing-mode:lr-tb;direction:ltr;text-orientation:mixed;dominant-baseline:auto;baseline-shift:baseline;text-anchor:start;white-space:normal;shape-padding:0;clip-rule:nonzero;display:inline;overflow:visible;visibility:visible;opacity:1;isolation:auto;mix-blend-mode:normal;color-interpolation:sRGB;color-interpolation-filters:linearRGB;solid-color:#000000;solid-opacity:1;vector-effect:none;fill:#e1e1e1;fill-opacity:1;fill-rule:nonzero;stroke:#000000;stroke-width:1;stroke-linecap:butt;stroke-linejoin:round;stroke-miterlimit:4;stroke-dasharray:none;stroke-dashoffset:0;stroke-opacity:0.4;color-rendering:auto;image-rendering:auto;shape-rendering:auto;text-rendering:auto;enable-background:accumulate"
       d="m 85.5,189.5 v 2 h 1 v 2.0957 c -4e-6,3.18365 1.721655,6.12788 4.503906,7.71485 1.091846,0.62277 2.283463,0.99102 3.496094,1.125 V 205.5 h 2 v -3.06445 c 1.212631,-0.13398 2.404248,-0.50223 3.496094,-1.125 C 102.77834,199.72358 104.5,196.77935 104.5,193.5957 V 191.5 h 1 v -2 z m 3,2 h 14 v 2.0957 c 0,2.46365 -1.32795,4.73988 -3.496094,5.97657 -2.168139,1.23668 -4.839673,1.23668 -7.007812,0 C 89.827953,198.33558 88.499997,196.05935 88.5,193.5957 Z"
       id="path9460" />
    <rect
       height="20"
       id="rect9406"
       rx="5"
       ry="4.9999995"
       style="fill:url(#linearGradient9408-0);fill-opacity:1;stroke:#000000;stroke-width:1.00000048;stroke-linecap:square;stroke-linejoin:round;stroke-miterlimit:4;stroke-dasharray:none;stroke-dashoffset:0;stroke-opacity:0.4"
       width="10"
       x="90.5"
       y="178.49998" />
    <path
       inkscape:connector-curvature="0"
       d="m 95.5,179 c -2.494764,0 -4.5,2.00113 -4.5,4.5 v 3.47826 h 9 V 183.5 c 0,-2.49887 -2.005236,-4.5 -4.5,-4.5 z"
       id="path9428"
       style="display:inline;opacity:0.9;fill:url(#radialGradient9430);fill-opacity:1;stroke:none;stroke-width:1" />
    <rect
       height="18"
       id="rect9410"
       rx="3.9999998"
       ry="3.9999995"
       style="display:inline;fill:none;stroke:url(#linearGradient9412-9);stroke-width:1.0000006;stroke-linecap:square;stroke-linejoin:round;stroke-miterlimit:4;stroke-dasharray:none;stroke-dashoffset:0;stroke-opacity:1"
       width="7.9999995"
       x="91.5"
       y="179.5" />
    <ellipse
       style="fill:url(#linearGradient9434-7);fill-opacity:1;stroke:none;stroke-width:1.04001582"
       id="ellipse9432"
       cx="93.9375"
       cy="182.39369"
       rx="2"
       ry="1.9813089" />
    <path
       inkscape:connector-curvature="0"
       style="display:inline;opacity:0.3;fill:#000000;fill-opacity:1;stroke:none"
       d="m 93.5,179 c -0.276,0 -0.5,0.224 -0.5,0.5 0,0.276 0.224,0.5 0.5,0.5 0.276,0 0.5,-0.224 0.5,-0.5 0,-0.276 -0.224,-0.5 -0.5,-0.5 z m 2,0 c -0.276,0 -0.5,0.224 -0.5,0.5 0,0.276 0.224,0.5 0.5,0.5 0.276,0 0.5,-0.224 0.5,-0.5 0,-0.276 -0.224,-0.5 -0.5,-0.5 z m 2,0 c -0.276,0 -0.5,0.224 -0.5,0.5 0,0.276 0.224,0.5 0.5,0.5 0.276,0 0.5,-0.224 0.5,-0.5 0,-0.276 -0.224,-0.5 -0.5,-0.5 z m -5,1 c -0.276,0 -0.5,0.224 -0.5,0.5 0,0.276 0.224,0.5 0.5,0.5 0.276,0 0.5,-0.224 0.5,-0.5 0,-0.276 -0.224,-0.5 -0.5,-0.5 z m 2,0 c -0.276,0 -0.5,0.224 -0.5,0.5 0,0.276 0.224,0.5 0.5,0.5 0.276,0 0.5,-0.224 0.5,-0.5 0,-0.276 -0.224,-0.5 -0.5,-0.5 z m 2,0 c -0.276,0 -0.5,0.224 -0.5,0.5 0,0.276 0.224,0.5 0.5,0.5 0.276,0 0.5,-0.224 0.5,-0.5 0,-0.276 -0.224,-0.5 -0.5,-0.5 z m 2,0 c -0.276,0 -0.5,0.224 -0.5,0.5 0,0.276 0.224,0.5 0.5,0.5 0.276,0 0.5,-0.224 0.5,-0.5 0,-0.276 -0.224,-0.5 -0.5,-0.5 z m -7,1 c -0.276,0 -0.5,0.224 -0.5,0.5 0,0.276 0.224,0.5 0.5,0.5 0.276,0 0.5,-0.224 0.5,-0.5 0,-0.276 -0.224,-0.5 -0.5,-0.5 z m 2,0 c -0.276,0 -0.5,0.224 -0.5,0.5 0,0.276 0.224,0.5 0.5,0.5 0.276,0 0.5,-0.224 0.5,-0.5 0,-0.276 -0.224,-0.5 -0.5,-0.5 z m 2,0 c -0.276,0 -0.5,0.224 -0.5,0.5 0,0.276 0.224,0.5 0.5,0.5 0.276,0 0.5,-0.224 0.5,-0.5 0,-0.276 -0.224,-0.5 -0.5,-0.5 z m 2,0 c -0.276,0 -0.5,0.224 -0.5,0.5 0,0.276 0.224,0.5 0.5,0.5 0.276,0 0.5,-0.224 0.5,-0.5 0,-0.276 -0.224,-0.5 -0.5,-0.5 z m 2,0 c -0.276,0 -0.5,0.224 -0.5,0.5 0,0.276 0.224,0.5 0.5,0.5 0.276,0 0.5,-0.224 0.5,-0.5 0,-0.276 -0.224,-0.5 -0.5,-0.5 z m -7,1 c -0.276,0 -0.5,0.224 -0.5,0.5 0,0.276 0.224,0.5 0.5,0.5 0.276,0 0.5,-0.224 0.5,-0.5 0,-0.276 -0.224,-0.5 -0.5,-0.5 z m 2,0 c -0.276,0 -0.5,0.224 -0.5,0.5 0,0.276 0.224,0.5 0.5,0.5 0.276,0 0.5,-0.224 0.5,-0.5 0,-0.276 -0.224,-0.5 -0.5,-0.5 z m 2,0 c -0.276,0 -0.5,0.224 -0.5,0.5 0,0.276 0.224,0.5 0.5,0.5 0.276,0 0.5,-0.224 0.5,-0.5 0,-0.276 -0.224,-0.5 -0.5,-0.5 z m 2,0 c -0.276,0 -0.5,0.224 -0.5,0.5 0,0.276 0.224,0.5 0.5,0.5 0.276,0 0.5,-0.224 0.5,-0.5 0,-0.276 -0.224,-0.5 -0.5,-0.5 z m -7,1 c -0.276,0 -0.5,0.224 -0.5,0.5 0,0.276 0.224,0.5 0.5,0.5 0.276,0 0.5,-0.224 0.5,-0.5 0,-0.276 -0.224,-0.5 -0.5,-0.5 z m 2,0 c -0.276,0 -0.5,0.224 -0.5,0.5 0,0.276 0.224,0.5 0.5,0.5 0.276,0 0.5,-0.224 0.5,-0.5 0,-0.276 -0.224,-0.5 -0.5,-0.5 z m 2,0 c -0.276,0 -0.5,0.224 -0.5,0.5 0,0.276 0.224,0.5 0.5,0.5 0.276,0 0.5,-0.224 0.5,-0.5 0,-0.276 -0.224,-0.5 -0.5,-0.5 z m 2,0 c -0.276,0 -0.5,0.224 -0.5,0.5 0,0.276 0.224,0.5 0.5,0.5 0.276,0 0.5,-0.224 0.5,-0.5 0,-0.276 -0.224,-0.5 -0.5,-0.5 z m 2,0 c -0.276,0 -0.5,0.224 -0.5,0.5 0,0.276 0.224,0.5 0.5,0.5 0.276,0 0.5,-0.224 0.5,-0.5 0,-0.276 -0.224,-0.5 -0.5,-0.5 z m -7,1 c -0.276,0 -0.5,0.224 -0.5,0.5 0,0.276 0.224,0.5 0.5,0.5 0.276,0 0.5,-0.224 0.5,-0.5 0,-0.276 -0.224,-0.5 -0.5,-0.5 z m 2,0 c -0.276,0 -0.5,0.224 -0.5,0.5 0,0.276 0.224,0.5 0.5,0.5 0.276,0 0.5,-0.224 0.5,-0.5 0,-0.276 -0.224,-0.5 -0.5,-0.5 z m 2,0 c -0.276,0 -0.5,0.224 -0.5,0.5 0,0.276 0.224,0.5 0.5,0.5 0.276,0 0.5,-0.224 0.5,-0.5 0,-0.276 -0.224,-0.5 -0.5,-0.5 z m 2,0 c -0.276,0 -0.5,0.224 -0.5,0.5 0,0.276 0.224,0.5 0.5,0.5 0.276,0 0.5,-0.224 0.5,-0.5 0,-0.276 -0.224,-0.5 -0.5,-0.5 z m -7,1 c -0.276,0 -0.5,0.224 -0.5,0.5 0,0.276 0.224,0.5 0.5,0.5 0.276,0 0.5,-0.224 0.5,-0.5 0,-0.276 -0.224,-0.5 -0.5,-0.5 z m 2,0 c -0.276,0 -0.5,0.224 -0.5,0.5 0,0.276 0.224,0.5 0.5,0.5 0.276,0 0.5,-0.224 0.5,-0.5 0,-0.276 -0.224,-0.5 -0.5,-0.5 z m 2,0 c -0.276,0 -0.5,0.224 -0.5,0.5 0,0.276 0.224,0.5 0.5,0.5 0.276,0 0.5,-0.224 0.5,-0.5 0,-0.276 -0.224,-0.5 -0.5,-0.5 z m 2,0 c -0.276,0 -0.5,0.224 -0.5,0.5 0,0.276 0.224,0.5 0.5,0.5 0.276,0 0.5,-0.224 0.5,-0.5 0,-0.276 -0.224,-0.5 -0.5,-0.5 z m 2,0 c -0.276,0 -0.5,0.224 -0.5,0.5 0,0.276 0.224,0.5 0.5,0.5 0.276,0 0.5,-0.224 0.5,-0.5 0,-0.276 -0.224,-0.5 -0.5,-0.5 z m -7,1 c -0.276,0 -0.5,0.224 -0.5,0.5 0,0.276 0.224,0.5 0.5,0.5 0.276,0 0.5,-0.224 0.5,-0.5 0,-0.276 -0.224,-0.5 -0.5,-0.5 z m 2,0 c -0.276,0 -0.5,0.224 -0.5,0.5 0,0.276 0.224,0.5 0.5,0.5 0.276,0 0.5,-0.224 0.5,-0.5 0,-0.276 -0.224,-0.5 -0.5,-0.5 z m 2,0 c -0.276,0 -0.5,0.224 -0.5,0.5 0,0.276 0.224,0.5 0.5,0.5 0.276,0 0.5,-0.224 0.5,-0.5 0,-0.276 -0.224,-0.5 -0.5,-0.5 z m 2,0 c -0.276,0 -0.5,0.224 -0.5,0.5 0,0.276 0.224,0.5 0.5,0.5 0.276,0 0.5,-0.224 0.5,-0.5 0,-0.276 -0.224,-0.5 -0.5,-0.5 z m -7,1 c -0.276,0 -0.5,0.224 -0.5,0.5 0,0.276 0.224,0.5 0.5,0.5 0.276,0 0.5,-0.224 0.5,-0.5 0,-0.276 -0.224,-0.5 -0.5,-0.5 z m 2,0 c -0.276,0 -0.5,0.224 -0.5,0.5 0,0.276 0.224,0.5 0.5,0.5 0.276,0 0.5,-0.224 0.5,-0.5 0,-0.276 -0.224,-0.5 -0.5,-0.5 z m 2,0 c -0.276,0 -0.5,0.224 -0.5,0.5 0,0.276 0.224,0.5 0.5,0.5 0.276,0 0.5,-0.224 0.5,-0.5 0,-0.276 -0.224,-0.5 -0.5,-0.5 z m 2,0 c -0.276,0 -0.5,0.224 -0.5,0.5 0,0.276 0.224,0.5 0.5,0.5 0.276,0 0.5,-0.224 0.5,-0.5 0,-0.276 -0.224,-0.5 -0.5,-0.5 z m 2,0 c -0.276,0 -0.5,0.224 -0.5,0.5 0,0.276 0.224,0.5 0.5,0.5 0.276,0 0.5,-0.224 0.5,-0.5 0,-0.276 -0.224,-0.5 -0.5,-0.5 z m -7,1 c -0.276,0 -0.5,0.224 -0.5,0.5 0,0.276 0.224,0.5 0.5,0.5 0.276,0 0.5,-0.224 0.5,-0.5 0,-0.276 -0.224,-0.5 -0.5,-0.5 z m 2,0 c -0.276,0 -0.5,0.224 -0.5,0.5 0,0.276 0.224,0.5 0.5,0.5 0.276,0 0.5,-0.224 0.5,-0.5 0,-0.276 -0.224,-0.5 -0.5,-0.5 z m 2,0 c -0.276,0 -0.5,0.224 -0.5,0.5 0,0.276 0.224,0.5 0.5,0.5 0.276,0 0.5,-0.224 0.5,-0.5 0,-0.276 -0.224,-0.5 -0.5,-0.5 z m 2,0 c -0.276,0 -0.5,0.224 -0.5,0.5 0,0.276 0.224,0.5 0.5,0.5 0.276,0 0.5,-0.224 0.5,-0.5 0,-0.276 -0.224,-0.5 -0.5,-0.5 z"
       id="path9414" />
    <path
       inkscape:connector-curvature="0"
       style="color:#000000;display:inline;overflow:visible;visibility:visible;fill:url(#linearGradient9423);fill-opacity:1;fill-rule:nonzero;stroke:#000000;stroke-width:1;stroke-miterlimit:4;stroke-dasharray:none;stroke-opacity:0.25098039;marker:none;enable-background:accumulate"
       d="m 90.5,188.52261 h 10 v 3 h -10 z"
       id="rect9419" />
    <path
       inkscape:connector-curvature="0"
       id="path9421"
       d="m 91.5,189.5 h 8 v 1 h -8 z"
       style="display:inline;opacity:0.4;fill:none;stroke:url(#linearGradient9425);stroke-width:1;stroke-linecap:round;stroke-linejoin:miter;stroke-miterlimit:4;stroke-dasharray:none;stroke-dashoffset:0;stroke-opacity:1;enable-background:new" />
    <rect
       style="display:inline;opacity:0.4;fill:#000000;fill-opacity:1;stroke:none;stroke-width:1;stroke-linecap:round;stroke-linejoin:round;stroke-miterlimit:4;stroke-dasharray:none;stroke-dashoffset:0;stroke-opacity:1;enable-background:new"
       id="rect9388"
       width="1"
       height="2"
       x="87"
       y="190" />
    <rect
       y="190"
       x="103"
       height="2"
       width="1"
       id="rect9390"
       style="display:inline;opacity:0.4;fill:#000000;fill-opacity:1;stroke:none;stroke-width:1;stroke-linecap:round;stroke-linejoin:round;stroke-miterlimit:4;stroke-dasharray:none;stroke-dashoffset:0;stroke-opacity:1;enable-background:new" />
    <path
       inkscape:connector-curvature="0"
       id="path9499"
       d="m 103.49995,193.59656 c 0,2.82362 -1.52478,5.43276 -3.99998,6.84457 -2.475192,1.41181 -5.524753,1.41181 -7.999945,0 -2.475195,-1.41181 -3.999977,-4.02095 -3.999975,-6.84457"
       style="opacity:1;fill:none;fill-opacity:1;stroke:#ffffff;stroke-width:0.99999988;stroke-linecap:round;stroke-linejoin:round;stroke-miterlimit:4;stroke-dasharray:none;stroke-dashoffset:0;stroke-opacity:0.49803922" />
    <path
       inkscape:connector-curvature="0"
       d="m 23.8125,31.494141 c -3.339495,0 -6.355926,0.702787 -8.453125,1.769531 -2.097199,1.066744 -3.146484,2.402694 -3.146484,3.642578 0,1.239884 1.049285,2.575834 3.146484,3.642578 2.097199,1.066744 5.11363,1.769532 8.453125,1.769531 3.339495,0 6.355926,-0.702787 8.453125,-1.769531 2.097199,-1.066744 3.146484,-2.402694 3.146484,-3.642578 0,-1.239884 -1.049285,-2.575834 -3.146484,-3.642578 -2.097199,-1.066744 -5.11363,-1.769531 -8.453125,-1.769531 z"
       id="path9501"
       style="display:inline;opacity:0.6;fill:none;stroke:url(#linearGradient9503-8);stroke-width:2.07995248;stroke-linecap:round;stroke-linejoin:round;stroke-miterlimit:4;stroke-dasharray:none;stroke-dashoffset:0;stroke-opacity:1"
       transform="matrix(0.58995952,0,0,0.39180583,81.422146,192.02086)" />
  </g>
</svg>
